# xmcd CD database file
#
# Track frame offsets:
#	150
#	14457
#	33343
#	50845
#	73672
#
# Disc length: 1249 seconds
#
# Revision: 0
# Processed by: cddbd v1.5.1PL2 Copyright (c) Steve Scherf et al.
# Submitted via: CDex 1.51
#
DISCID=4104df05
DTITLE=秘密結社コドモA - 再放送＋予告盤
DYEAR=2005
DGENRE=Rock
TTITLE0=極楽ディスコナンバー
TTITLE1=人間ララバイ
TTITLE2=青が故に春
TTITLE3=ビンゾコメガネ
TTITLE4=パトリシア
EXTD=YEAR: 2005.12.7
EXTT0=
EXTT1=
EXTT2=
EXTT3=
EXTT4=
PLAYORDER=
